HIERARCHY
ROOT Hips
{
 OFFSET 0.000000 0.000000 0.000000
 CHANNELS 6 Xposition Yposition Zposition Yrotation Xrotation Zrotation
 JOINT Chest
 {
  OFFSET 0.000000 10.472665 -1.163630
  CHANNELS 3 Yrotation Xrotation Zrotation
  JOINT Chest2
  {
   OFFSET 0.000000 9.539204 0.000000
   CHANNELS 3 Yrotation Xrotation Zrotation
   JOINT Chest3
   {
    OFFSET 0.000000 8.712031 0.000000
    CHANNELS 3 Yrotation Xrotation Zrotation
    JOINT Chest4
    {
     OFFSET 0.000000 8.702295 0.000000
     CHANNELS 3 Yrotation Xrotation Zrotation
     JOINT Neck
     {
      OFFSET 0.000000 12.050423 0.000000
      CHANNELS 3 Yrotation Xrotation Zrotation
      JOINT Head
      {
       OFFSET 0.000000 8.529202 0.000000
       CHANNELS 3 Yrotation Xrotation Zrotation
       End Site
       {
        OFFSET 0.000000 16.162796 0.000000
       }
      }
     }
     JOINT RightCollar
     {
      OFFSET -2.621557 6.754878 0.000000
      CHANNELS 3 Yrotation Xrotation Zrotation
      JOINT RightShoulder
      {
       OFFSET -12.689737 0.000000 0.000000
       CHANNELS 3 Yrotation Xrotation Zrotation
       JOINT RightElbow
       {
        OFFSET -25.126415 0.000000 0.000000
        CHANNELS 3 Yrotation Xrotation Zrotation
        JOINT RightWrist
        {
         OFFSET -22.454540 0.000000 0.000000
         CHANNELS 3 Yrotation Xrotation Zrotation
         End Site
         {
          OFFSET -16.640741 0.000000 0.000000
         }
        }
       }
      }
     }
     JOINT LeftCollar
     {
      OFFSET 2.621557 6.754878 0.000000
      CHANNELS 3 Yrotation Xrotation Zrotation
      JOINT LeftShoulder
      {
       OFFSET 12.689737 0.000000 0.000000
       CHANNELS 3 Yrotation Xrotation Zrotation
       JOINT LeftElbow
       {
        OFFSET 25.126415 0.000000 0.000000
        CHANNELS 3 Yrotation Xrotation Zrotation
        JOINT LeftWrist
        {
         OFFSET 22.454540 0.000000 0.000000
         CHANNELS 3 Yrotation Xrotation Zrotation
         End Site
         {
          OFFSET 16.640741 0.000000 0.000000
         }
        }
       }
      }
     }
    }
   }
  }
 }
 JOINT RightHip
 {
  OFFSET -8.610511 0.000000 0.000000
  CHANNELS 3 Yrotation Xrotation Zrotation
  JOINT RightKnee
  {
   OFFSET 0.000000 -41.563098 0.000000
   CHANNELS 3 Yrotation Xrotation Zrotation
   JOINT RightAnkle
   {
    OFFSET 0.000000 -36.995114 0.000000
    CHANNELS 3 Yrotation Xrotation Zrotation
    JOINT RightToe
    {
     OFFSET 0.000000 -7.019261 15.874328
     CHANNELS 3 Yrotation Xrotation Zrotation
     End Site
     {
      OFFSET 0.000000 -1.357051 5.790084
     }
    }
   }
  }
 }
 JOINT LeftHip
 {
  OFFSET 8.610511 0.000000 0.000000
  CHANNELS 3 Yrotation Xrotation Zrotation
  JOINT LeftKnee
  {
   OFFSET 0.000000 -41.563098 0.000000
   CHANNELS 3 Yrotation Xrotation Zrotation
   JOINT LeftAnkle
   {
    OFFSET 0.000000 -36.995114 0.000000
    CHANNELS 3 Yrotation Xrotation Zrotation
    JOINT LeftToe
    {
     OFFSET 0.000000 -7.019261 15.874328
     CHANNELS 3 Yrotation Xrotation Zrotation
     End Site
     {
      OFFSET 0.000000 -1.357051 5.790084
     }
    }
   }
  }
 }
}
MOTION
Frames: 10
Frame Time: 0.016667
0.000000 87.029170 0.000000 0.000000 6.340192 0.000000 0.000000 -6.340192 0.000000 0.000000 -5.826342 0.000000 0.000000 -0.005910 0.000000 0.000000 5.832252 0.000000 0.000000 12.610213 0.000000 0.000000 -9.243752 0.000000 0.000000 0.000000 0.000000 0.000000 0.000000 0.000000 2.309063 0.000000 0.000000 -2.309063 0.000000 0.000000 0.000000 0.000000 0.000000 0.000000 0.000000 0.000000 -2.309063 0.000000 0.000000 2.309063 0.000000 0.000000 0.000000 -3.591006 0.000000 0.000000 1.872585 0.000000 0.000000 -4.621771 0.000000 0.000000 0.000000 0.000000 0.000000 -3.587706 0.000000 0.000000 1.905768 0.000000 0.000000 -4.658254 0.000000 0.000000 0.000000 0.000000
10.208658 86.630315 15.755838 -1.686156 1.665404 0.185016 -2.348990 1.486933 0.479782 -1.067938 -5.167877 0.221630 -1.063677 0.651547 0.113219 -0.789082 6.325143 0.086499 -0.359510 13.095526 -0.335949 -0.544951 -11.709284 -0.490670 3.936074 -1.095779 9.986851 2.685412 -9.749571 75.694419 3.396741 -3.360230 3.662265 -3.447337 -1.408858 -1.901161 -3.067153 -0.962752 -8.877861 -8.321592 -9.440397 -76.584668 -4.192562 -20.672044 -0.987628 1.171543 2.177059 2.021597 3.598028 -14.910136 -2.212164 -0.448315 35.120217 -0.494775 -7.528100 -9.700223 10.935141 0.171777 -7.644126 -6.033933 -1.777708 -7.501195 -6.111983 -1.166685 8.923122 -0.391518 5.770504 -6.034756 9.259376 0.000000 0.000000 0.000000
10.245014 86.673030 15.885855 -1.464040 1.700582 -0.065696 -2.413287 1.438936 0.603062 -1.102432 -5.189892 0.276604 -1.097996 0.629467 0.164692 -0.810924 6.308476 0.125329 -0.407840 13.077201 -0.345266 -0.632805 -11.743356 -0.488614 3.883506 -1.080074 9.854228 2.389989 -9.749678 75.941630 3.344032 -3.226386 3.661050 -3.544299 -1.404256 -1.834775 -3.165565 -0.916113 -8.843224 -8.632367 -9.473955 -76.776167 -3.910475 -20.546272 -0.665020 1.355488 2.192751 2.106774 3.740099 -14.617947 -2.074569 0.068304 33.225707 0.034517 -8.089187 -9.943475 10.782244 0.018262 -5.344777 -6.447562 -1.813247 -7.416212 -6.004590 -1.208576 8.839084 -0.214481 5.670064 -6.078784 9.216365 0.000000 0.000000 0.000000
10.274947 86.707054 16.015399 -1.291585 1.722729 -0.258291 -2.447342 1.392640 0.700032 -1.122186 -5.210998 0.319747 -1.117633 0.608323 0.205830 -0.822536 6.292530 0.156345 -0.456118 13.059418 -0.356316 -0.719872 -11.776408 -0.489842 3.841150 -1.061493 9.755897 2.150311 -9.751031 76.118066 3.247531 -3.159406 3.662373 -3.670801 -1.392022 -1.740516 -3.248132 -0.867549 -8.828115 -8.767246 -9.490591 -76.956337 -3.681656 -20.287698 -0.464855 1.489203 2.208393 2.160238 3.935791 -14.290785 -1.973654 0.440960 31.345562 0.433455 -8.488815 -10.111765 10.685236 -0.079392 -3.383924 -6.125961 -1.933818 -7.310898 -5.918038 -1.207793 8.736115 -0.073956 5.667080 -6.147069 9.193712 0.000000 0.000000 0.000000
10.298985 86.728407 16.141261 -1.196750 1.723121 -0.370132 -2.435239 1.350941 0.763738 -1.119797 -5.229829 0.347931 -1.115219 0.589497 0.234257 -0.818573 6.278353 0.177753 -0.505829 13.041678 -0.372820 -0.807449 -11.809381 -0.500809 3.812560 -1.045608 9.711586 1.989505 -9.750049 76.165920 3.096388 -3.221361 3.700373 -3.852693 -1.364527 -1.589492 -3.307031 -0.820913 -8.845615 -8.644964 -9.480236 -77.124717 -3.545532 -19.829136 -0.445042 1.542761 2.226111 2.174296 4.249669 -13.903400 -1.937729 0.603088 29.421445 0.680662 -8.643562 -10.203087 10.702784 -0.075964 -1.875995 -4.354693 -2.200011 -7.174270 -5.859626 -1.127698 8.600233 0.016985 5.816923 -6.241187 9.213350 -0.000000 0.000000 0.000000
10.316600 86.741069 16.266650 -1.151413 1.709553 -0.423999 -2.392700 1.310879 0.801192 -1.102599 -5.247747 0.364325 -1.098060 0.571613 0.252397 -0.804329 6.264910 0.191387 -0.555471 13.024494 -0.391089 -0.894187 -11.841319 -0.515135 3.794026 -1.026867 9.701651 1.884700 -9.752029 76.143154 2.901448 -3.350009 3.741589 -4.064273 -1.328567 -1.411037 -3.350046 -0.772303 -8.882467 -8.347003 -9.450429 -77.281268 -3.466626 -19.235350 -0.543338 1.545498 2.243838 2.157924 4.615109 -13.479752 -1.936853 0.648020 27.517424 0.825759 -8.648010 -10.218601 10.793592 -0.027318 -0.740404 -1.841115 -2.551432 -7.016535 -5.823283 -1.004852 8.445868 0.071690 6.064160 -6.359530 9.253180 -0.000000 -0.000000 0.000000
10.319783 86.748300 16.400709 -1.120897 1.692452 -0.430095 -2.336603 1.265391 0.807102 -1.077840 -5.267896 0.366589 -1.073365 0.551511 0.257175 -0.785444 6.249834 0.194930 -0.600547 13.009948 -0.401675 -0.975409 -11.868324 -0.516741 3.784688 -0.985657 9.701498 1.822755 -9.773947 76.153035 2.652117 -3.426251 3.687316 -4.257107 -1.298161 -1.263727 -3.384706 -0.708174 -8.918454 -7.941859 -9.408566 -77.415422 -3.391012 -18.568413 -0.697103 1.535150 2.255262 2.106020 4.887424 -13.056859 -1.923250 0.723065 25.840898 0.906653 -8.617325 -10.085877 10.884035 0.000000 -0.000000 0.000000 -2.892358 -6.848743 -5.809798 -0.906058 8.297370 0.093606 6.340101 -6.521504 9.267407 0.000000 0.000000 0.000000
10.306921 86.751585 16.549363 -1.086853 1.667895 -0.389139 -2.275315 1.216096 0.779804 -1.049174 -5.289572 0.354012 -1.044776 0.529889 0.247507 -0.764733 6.233648 0.187570 -0.639107 12.994231 -0.400715 -1.049004 -11.897443 -0.499076 3.787758 -0.903728 9.707243 1.802670 -9.840976 76.222309 2.328705 -3.398144 3.488669 -4.396105 -1.282566 -1.177667 -3.412847 -0.615149 -8.950842 -7.433143 -9.361918 -77.510633 -3.317535 -17.830376 -0.924388 1.508810 2.253323 2.005547 4.971153 -12.628808 -1.871847 0.930427 24.446060 0.938752 -8.557037 -9.621189 10.994050 -0.000202 0.240931 0.459306 -3.236290 -6.666926 -5.811631 -0.836101 8.151061 0.071394 6.650439 -6.707846 9.229954 -0.000000 0.000000 -0.000000
10.279626 86.749438 16.706688 -1.067687 1.639733 -0.300412 -2.200228 1.161687 0.720957 -1.012859 -5.313364 0.327307 -1.008570 0.506163 0.224489 -0.739322 6.215912 0.170130 -0.673183 12.981148 -0.392091 -1.117235 -11.921615 -0.468695 3.800097 -0.799411 9.723165 1.825257 -9.928364 76.324023 1.949363 -3.319783 3.195291 -4.515803 -1.272604 -1.121642 -3.432556 -0.506536 -8.982095 -6.817429 -9.303906 -77.582445 -3.249183 -17.018285 -1.204784 1.469292 2.245539 1.869516 4.961840 -12.201140 -1.810919 1.178774 23.280454 0.918880 -8.461962 -9.008101 11.109248 -0.000812 0.119672 0.230067 -3.570314 -6.476233 -5.836546 -0.789991 8.010364 0.016798 6.989811 -6.937685 9.166400 -0.000000 0.000000 0.000000
10.234732 86.740657 16.864061 -1.083831 1.630218 -0.171930 -2.102738 1.090752 0.630169 -0.965045 -5.344349 0.286237 -0.960903 0.475261 0.188272 -0.706319 6.192817 0.142716 -0.704248 12.984210 -0.377915 -1.181986 -11.915751 -0.429097 3.811397 -0.707829 9.736779 1.879850 -9.978449 76.481177 1.560572 -3.231452 2.855950 -4.671711 -1.254578 -1.061528 -3.445715 -0.408917 -8.999907 -6.152631 -9.221201 -77.668056 -3.137142 -16.187389 -1.416391 1.463047 2.247346 1.731637 5.001763 -11.828503 -1.773104 1.322012 22.390324 0.856456 -8.424418 -8.723569 11.091097 -0.000000 -0.000000 0.000000 -3.759304 -6.301243 -5.906522 -0.819925 7.910461 -0.032291 7.273209 -7.287981 9.108284 -0.000000 0.000000 -0.000000
